
<svg id="wc48-branding" xmlns="http://www.w3.org/2000/svg" width="122.273" height="59.148" viewBox="0 0 122.273 59.148">
<g>
<g>
<path fill="#FCD006" d="M81.562,21.396c-0.217-0.02-0.418,0.042-0.584,0.153c-0.027,0.021-0.056,0.039-0.084,0.06&#xA;c-2.888,1.997-7.693,4.424-11.315,1.7c-3.71-2.789-5.874-8.203-6.854-11.28c-0.002-0.006-0.005-0.011-0.008-0.016&#xA;c-0.109-0.333-0.408-0.586-0.78-0.619c-0.373-0.032-0.712,0.164-0.878,0.475c-0.003,0.005-0.007,0.011-0.009,0.015&#xA;c-1.502,2.86-4.572,7.815-8.712,9.919c-4.038,2.052-8.352-1.172-10.848-3.641c-0.025-0.024-0.048-0.049-0.073-0.072&#xA;c-0.145-0.139-0.332-0.234-0.546-0.253c-0.5-0.043-0.939,0.327-0.984,0.826c-0.006,0.061-0.004,0.121,0.003,0.18l0.003,0.021&#xA;l2.968,17.374l0.01,0.05c0.063,0.401,0.392,0.725,0.814,0.762l15.884,1.391h0.002h0.001l15.884,1.391&#xA;c0.424,0.037,0.803-0.227,0.937-0.608l0.016-0.048l5.939-16.594l0.01-0.022c0.016-0.056,0.026-0.114,0.031-0.175&#xA;C82.431,21.881,82.06,21.44,81.562,21.396z"></path>
<circle fill="#FCD006" cx="62.632" cy="3.414" r="3.414"></circle>
</g>
<g>
<path fill="#241754" d="M0,47.629h3.37l2.278,7.021h0.123l2.586-9.222h3.18l2.604,9.238h0.104l2.298-7.038H19.9l-3.809,10.975&#xA;h-3.695l-2.378-8.01H9.896l-2.379,8.01H3.801L0,47.629z"></path>
<path fill="#241754" d="M19.555,54.229c0-2.707,1.668-4.538,4.424-4.538c2.754,0,4.422,1.831,4.422,4.538&#xA;c0,2.705-1.668,4.536-4.422,4.536C21.223,58.766,19.555,56.935,19.555,54.229z M25.614,54.212c0-1.475-0.583-2.495-1.62-2.495&#xA;c-1.07,0-1.652,1.021-1.652,2.495s0.582,2.496,1.652,2.496C25.031,56.708,25.614,55.687,25.614,54.212z"></path>
<path fill="#241754" d="M29.813,49.806h2.658v1.587h0.079c0.325-1.148,1.104-1.718,2.075-1.718c0.259,0,0.552,0.048,0.777,0.098&#xA;v2.384c-0.259-0.082-0.745-0.132-1.085-0.132c-1.021,0-1.769,0.715-1.769,1.768v4.813h-2.737L29.813,49.806L29.813,49.806z"></path>
<path fill="#241754" d="M39.245,58.604h-2.738V46.872h2.738V58.604z"></path>
<path fill="#241754" d="M40.688,54.212c0-3.095,1.669-4.521,3.516-4.521c1.41,0,2.155,0.826,2.497,1.62h0.064v-4.438h2.722v11.73&#xA;H46.78v-1.427H46.7c-0.355,0.795-1.134,1.557-2.479,1.557C42.26,58.733,40.688,57.194,40.688,54.212z M46.813,54.196&#xA;c0-1.458-0.6-2.365-1.668-2.365c-1.07,0-1.653,0.939-1.653,2.365c0,1.458,0.6,2.398,1.653,2.398&#xA;C46.197,56.595,46.813,55.654,46.813,54.196z"></path>
<path fill="#241754" d="M56.401,49.141c-1.733,0-2.786,1.313-2.786,3.599c0,2.364,1.085,3.598,2.77,3.598&#xA;c1.266,0,2.141-0.682,2.352-1.832l2.786,0.017c-0.228,2.09-2.009,4.245-5.186,4.245c-3.176,0-5.542-2.171-5.542-6.026&#xA;c0-3.873,2.414-6.028,5.542-6.028c2.819,0,4.895,1.588,5.186,4.392h-2.786C58.573,49.902,57.714,49.141,56.401,49.141z"></path>
<path fill="#241754" d="M62.782,49.806h2.656v1.587h0.082c0.322-1.148,1.102-1.718,2.072-1.718c0.261,0,0.552,0.048,0.779,0.098&#xA;v2.384c-0.261-0.082-0.747-0.132-1.087-0.132c-1.021,0-1.766,0.715-1.766,1.768v4.813h-2.738L62.782,49.806L62.782,49.806z"></path>
<path fill="#241754" d="M68.859,54.229c0-2.707,1.668-4.538,4.423-4.538c2.754,0,4.424,1.831,4.424,4.538&#xA;c0,2.705-1.67,4.536-4.424,4.536C70.528,58.766,68.859,56.935,68.859,54.229z M74.919,54.212c0-1.475-0.584-2.495-1.621-2.495&#xA;c-1.067,0-1.651,1.021-1.651,2.495s0.584,2.496,1.651,2.496C74.335,56.708,74.919,55.687,74.919,54.212z"></path>
<path fill="#241754" d="M77.945,49.806h2.74l1.229,5.688h0.064l1.313-5.688h2.674l1.345,5.654h0.065l1.185-5.654h2.754&#xA;l-2.318,8.798H86.08l-1.393-5.217h-0.115l-1.393,5.217h-2.916L77.945,49.806z"></path>
<path fill="#241754" d="M94.826,58.604h-2.738v-8.798h2.593v1.604h0.1c0.404-1.07,1.375-1.72,2.672-1.72&#xA;c1.848,0,3.063,1.313,3.047,3.307v5.605h-2.723v-5.089c0-0.988-0.533-1.588-1.441-1.588c-0.905,0-1.508,0.617-1.508,1.638&#xA;L94.826,58.604L94.826,58.604z"></path>
<path fill="#241754" d="M102.039,54.472l4.861-7.6h3.483v7.583h1.427v2.172h-1.427v2.521h-2.643v-2.521h-5.703L102.039,54.472&#xA;L102.039,54.472z M107.792,54.455v-4.649h-0.1l-2.9,4.553v0.098L107.792,54.455L107.792,54.455z"></path>
<path fill="#241754" d="M112.792,55.705c0-1.505,0.82-2.726,2.313-2.96v-0.083c-1.297-0.251-1.873-1.338-1.873-2.676&#xA;c0-1.89,1.813-3.276,4.311-3.276c2.463,0,4.293,1.388,4.293,3.276c0,1.338-0.608,2.425-1.873,2.676v0.083&#xA;c1.459,0.234,2.312,1.455,2.312,2.96c0,1.973-1.992,3.443-4.73,3.443C114.787,59.149,112.792,57.678,112.792,55.705z&#xA; M119.373,55.403c0-0.951-0.776-1.653-1.83-1.653c-1.069,0-1.864,0.702-1.848,1.653c-0.018,0.953,0.744,1.64,1.848,1.64&#xA;C118.626,57.042,119.373,56.356,119.373,55.403z M119.13,50.287c0-0.853-0.664-1.471-1.588-1.471&#xA;c-0.957,0-1.604,0.603-1.604,1.471c0,0.87,0.664,1.505,1.604,1.505C118.466,51.792,119.13,51.174,119.13,50.287z"></path>
</g>
</g>
</svg>